<svg width="55" height="32" viewBox="0 0 55 32" fill="none" xmlns="http://www.w3.org/2000/svg">
<path d="M54.4909 14.7623L40.3322 0.513133C40.0061 0.184559 39.5634 0 39.1023 0C38.6407 0 38.198 0.184559 37.8719 0.512747L33.3011 5.1128L28.7303 0.513143C28.4041 0.184569 27.9614 9.80345e-06 27.5003 9.80345e-06C27.0388 9.80345e-06 26.596 0.184569 26.27 0.512757L21.6991 5.11281L17.1283 0.513152C16.8022 0.184579 16.3598 1.96069e-05 15.8984 1.96069e-05C15.4369 1.96069e-05 14.9945 0.184579 14.668 0.512767L0.508341 14.762C0.182621 15.0909 0 15.5361 0 16.0002C0 16.4639 0.183004 16.9091 0.508724 17.2377L14.6674 31.4869C14.9935 31.8154 15.4362 32 15.8974 32C16.3589 32 16.8016 31.8154 17.1277 31.4873L21.6985 26.8872L26.2694 31.4869C26.5955 31.8154 27.0382 32 27.4993 32C27.9608 32 28.4036 31.8154 28.7297 31.4872L33.3005 26.8872L37.8713 31.4868C38.1974 31.8154 38.6398 32 39.1013 32C39.5628 32 40.0051 31.8154 40.3316 31.4872L54.4913 17.238L54.4917 17.2377C54.8174 16.9087 55 16.4635 55 15.9995C55 15.5357 54.817 15.0906 54.4913 14.7619L54.4909 14.7623ZM27.5142 1.73582L32.0854 6.33587L27.4996 10.9502L22.9238 6.34555L27.5142 1.73582ZM41.6738 16.0147L33.2979 24.426L28.7255 19.8152L31.2872 17.2372L31.2876 17.2375C31.6129 16.9086 31.7959 16.4634 31.7955 15.9993C31.7955 15.5356 31.6125 15.0904 31.2868 14.7618L28.7183 12.1773L33.3087 7.56715L41.673 15.9846H41.6734C41.6773 15.9885 41.6796 15.9939 41.6796 15.9997C41.6796 16.0055 41.6773 16.0109 41.6734 16.0147L41.6738 16.0147ZM23.7122 17.2378L26.2808 19.8224L21.6961 24.4259L13.3252 15.9845L21.7073 7.56706L26.2843 12.1729L23.712 14.7617H23.7116C23.3862 15.0907 23.2036 15.5359 23.2036 15.9995C23.2036 16.4636 23.3866 16.9088 23.7123 17.2373L23.7122 17.2378ZM24.9277 15.9849L27.5024 13.3988L30.0717 15.9845C30.0755 15.9884 30.0778 15.9938 30.0778 15.9996C30.0778 16.0054 30.0755 16.0108 30.0717 16.0146L30.0721 16.0142L27.5092 18.588L24.9277 15.9849ZM15.883 30.2638L1.72336 15.9849L15.9125 1.73572L20.4837 6.33577L12.1101 14.7621C11.7844 15.0911 11.6018 15.5363 11.6018 16.0003C11.6018 16.464 11.7848 16.9092 12.1105 17.2378L20.4737 25.6545L15.883 30.2638ZM27.4852 30.2638L22.919 25.6591L27.4998 21.0489L32.0757 25.654L27.4852 30.2638ZM39.0873 30.2638L34.5211 25.6591L42.8897 17.237V17.2373C43.2154 16.9084 43.3981 16.4632 43.3981 15.9991C43.3981 15.5354 43.2151 15.0902 42.8893 14.7616L34.5261 6.34495L39.1165 1.73522L53.2752 15.9844H53.2756C53.2794 15.9883 53.2817 15.9937 53.2817 15.9995C53.2817 16.0053 53.2794 16.0107 53.2756 16.0145L53.276 16.0141L39.0873 30.2638Z" fill="white"/>
</svg>
