<svg width="40" height="52" viewBox="0 0 40 52" fill="none" xmlns="http://www.w3.org/2000/svg">
<path d="M16.5466 50.7812L19.0646 51.8567C19.2805 51.9283 19.4243 52 19.6402 52C19.8561 52 19.9999 51.9283 20.2158 51.8567L23.0935 50.6379C33.3813 46.336 40 36.4414 40 25.328V11.4183C40 10.9165 39.7122 10.4145 39.2087 10.1276L20.4317 0.161395C20.0001 -0.0537985 19.4963 -0.0537985 19.0647 0.161395L0.719424 10.1993C0.287818 10.4862 0 10.9163 0 11.49V25.6865C0 36.5131 6.47482 46.4077 16.5468 50.7813L16.5466 50.7812ZM2.87751 12.2786L19.784 3.02937L37.1221 12.2786V25.3279C37.1221 35.2941 31.1508 44.1849 22.0142 47.9849L19.7122 48.9888L17.7698 48.1285C8.77703 44.2567 2.94969 35.366 2.94969 25.6149V12.2788L2.87751 12.2786Z" fill="white"/>
<path d="M15.971 32.2823C16.4879 32.877 17.389 32.941 17.9853 32.4259V32.4259L29.4636 23.1435C30.0775 22.6471 30.1726 21.747 29.676 21.1332V21.1332C29.1793 20.5194 28.2791 20.4246 27.6655 20.9215L17.2658 29.3427L13.2352 24.6269C12.7182 24.022 11.8105 23.9458 11.1999 24.4562V24.4562C10.579 24.9751 10.502 25.9013 11.0285 26.5157L15.971 32.2823V32.2823Z" fill="white"/>
</svg>
