<svg width="50" height="40" viewBox="0 0 50 40" fill="none" xmlns="http://www.w3.org/2000/svg">
<path d="M25.0001 0C11.2107 0 0 11.2543 0 25.0977C0 30.0883 1.44653 34.7512 3.9538 38.6644C4.42305 39.3968 5.43263 39.5008 6.08276 38.923V38.923C6.64825 38.4204 6.73808 37.5746 6.33512 36.9343C4.18148 33.512 2.94106 29.451 2.94106 25.097C2.94106 12.8495 12.7996 2.95201 25 2.95201C37.2004 2.95201 47.0589 12.8495 47.0589 25.097C47.0589 29.451 45.8185 33.5119 43.6653 36.9338C43.2624 37.5741 43.3523 38.4198 43.9177 38.9224V38.9224C44.5679 39.5003 45.5775 39.3962 46.0467 38.6638C48.5538 34.7505 50 30.0876 50 25.0972C50 11.2539 38.7902 0 25.0001 0ZM32.0916 21.3828C32.4866 20.3244 31.0982 19.5255 30.3816 20.3988L23.9892 28.1893C23.105 28.4437 22.3022 29.0338 21.8063 29.8962C20.7913 31.6613 21.4037 33.929 23.1619 34.9479C24.9202 35.9669 27.179 35.3521 28.1939 33.587C28.6899 32.724 28.7843 31.7381 28.5617 30.8421L32.0916 21.3828Z" fill="white"/>
</svg>
