<svg width="50" height="50" viewBox="0 0 50 50" fill="none" xmlns="http://www.w3.org/2000/svg">
<path d="M49.4058 48.3879H45.3269V46.5733C45.3152 46.1946 45.0528 45.8706 44.6849 45.7797L41.6617 45.1128C41.2425 43.3467 40.5348 41.6614 39.5674 40.1248L41.3069 37.7276C41.5282 37.4036 41.4965 36.9699 41.2311 36.6812L37.4814 32.9001C37.2164 32.6514 36.8216 32.6006 36.502 32.7735L33.6307 34.4111V34.4107C32.1181 33.5437 30.48 32.9171 28.7749 32.5539L28.1333 29.5998H28.1329C28.0401 29.2385 27.7208 28.9811 27.3476 28.9668H21.9088H21.9092C21.5337 28.9822 21.2137 29.2437 21.1235 29.6085L20.4227 32.9084C18.9313 33.3512 17.5099 34.0019 16.2002 34.8414L13.6076 33.2717V33.2713C13.2935 33.0784 12.8875 33.1274 12.6282 33.3896L8.66735 37.3061V37.3057C8.40232 37.5857 8.36085 38.0096 8.56631 38.3355L10.3819 41.0533C9.71651 42.2791 9.20871 43.5835 8.87014 44.9358L5.77949 45.6028C5.41794 45.6955 5.16044 46.0146 5.14612 46.3876V48.388H0.594156C0.240897 48.4976 0 48.8243 0 49.194C0 49.5636 0.240907 49.8903 0.594156 49.9999H49.4058C49.7591 49.8903 50 49.5636 50 49.194C50 48.8243 49.7591 48.4976 49.4058 48.388L49.4058 48.3879ZM6.7584 47.0457L9.70583 46.4044C10.0195 46.3276 10.2623 46.0785 10.3305 45.7628C10.6623 44.2292 11.2323 42.7567 12.0195 41.3991C12.1703 41.138 12.1703 40.8162 12.0195 40.5551L10.2714 37.9639L13.3032 34.9594L15.7944 36.4617C16.0527 36.6241 16.3807 36.6241 16.6389 36.4617C18.0606 35.4745 19.6437 34.7432 21.3176 34.3012C21.6083 34.2153 21.8307 33.9802 21.9001 33.6851L22.5674 30.554H26.6971L27.3218 33.4572C27.3987 33.7711 27.6476 34.0133 27.9635 34.0819C29.8236 34.4116 31.6057 35.0872 33.2163 36.0736C33.4776 36.2243 33.7996 36.2243 34.0608 36.0736L36.7972 34.5121L39.6345 37.3648L37.9455 39.6689C37.7638 39.9489 37.7638 40.3095 37.9455 40.5891C39.0411 42.2138 39.8071 44.0375 40.2003 45.9568C40.2614 46.27 40.5042 46.5164 40.8167 46.5816L43.7133 47.2146V48.3879H36.5521C36.3391 44.4908 34.1355 40.9775 30.7187 39.0883C27.3019 37.1986 23.1529 37.1986 19.7365 39.0883C16.3197 40.9775 14.1157 44.4908 13.9027 48.3879H6.75018L6.7584 47.0457ZM34.9394 48.3879H15.516C15.7128 45.0559 17.6054 42.0577 20.5298 40.4462C23.4543 38.8343 27.0011 38.8343 29.9256 40.4462C32.8497 42.0577 34.7426 45.0559 34.9394 48.3879V48.3879Z" fill="white"/>
<path d="M10.2714 32.5031C10.7057 32.482 11.0526 32.135 11.0737 31.7013V17.9182C11.0744 17.468 10.7216 17.0965 10.2714 17.0742H6.04896C5.58261 17.0742 5.20447 17.4518 5.20447 17.9182V43.2388C5.31417 43.5919 5.64104 43.8322 6.01126 43.8322C6.3811 43.8322 6.70797 43.5918 6.81768 43.2388V18.7623H9.4609V31.7013C9.48239 32.138 9.83451 32.4862 10.2715 32.5031H10.2714Z" fill="white"/>
<path d="M18.6911 30.5787C19.1409 30.5561 19.4941 30.1846 19.4934 29.7347V9.98464C19.4941 9.53437 19.1409 9.16286 18.6911 9.14062H14.4687C14.0189 9.16286 13.666 9.53437 13.6664 9.98464V31.6002C13.7761 31.9533 14.103 32.194 14.4728 32.194C14.843 32.194 15.1699 31.9532 15.2796 31.6002V10.7949H17.8722L17.8719 29.7771C17.8937 30.2168 18.2508 30.5661 18.6911 30.5789L18.6911 30.5787Z" fill="white"/>
<path d="M27.1022 27.4728C27.5524 27.4736 27.9241 27.1209 27.9467 26.671V0.844019C27.9467 0.620204 27.8577 0.405804 27.6994 0.247177C27.5407 0.0889258 27.3262 0 27.1022 0H22.8798C22.413 0 22.0353 0.377927 22.0353 0.844019V26.6459C21.9553 26.9021 22.0025 27.181 22.1616 27.3969C22.3207 27.6128 22.5732 27.7405 22.8417 27.7405C23.1101 27.7405 23.3623 27.6128 23.5214 27.3969C23.6809 27.181 23.7276 26.9021 23.6481 26.6459V1.6456H26.249V26.7048C26.2886 27.1441 26.6607 27.4791 27.1022 27.4727L27.1022 27.4728Z" fill="white"/>
<path d="M35.521 31.9631C35.9712 31.9405 36.3241 31.5693 36.3233 31.119V12.812C36.3241 12.3618 35.9712 11.9903 35.521 11.968H31.2986C30.8488 11.9902 30.4959 12.3618 30.4963 12.812V30.7554C30.4168 31.0116 30.4639 31.2904 30.623 31.5063C30.7821 31.7222 31.0347 31.8496 31.3031 31.8496C31.5712 31.8496 31.8237 31.7222 31.9828 31.5063C32.1419 31.2904 32.1891 31.0116 32.1095 30.7554V13.6136H34.7105V31.1518C34.7278 31.5919 35.0807 31.9446 35.521 31.9619L35.521 31.9631Z" fill="white"/>
<path d="M43.9336 44.1092C44.1575 44.1092 44.3724 44.0203 44.5308 43.862C44.6891 43.7038 44.7781 43.489 44.7781 43.2652V21.9786C44.7555 21.5291 44.3838 21.1764 43.9336 21.1768H39.7111C39.2772 21.1979 38.93 21.5449 38.9089 21.9786V31.1614C38.8293 31.4176 38.8761 31.6965 39.0352 31.9124C39.1946 32.1283 39.4469 32.256 39.7153 32.256C39.9837 32.256 40.2359 32.1283 40.3954 31.9124C40.5545 31.6965 40.6013 31.4176 40.5217 31.1614V22.7886H43.1144V43.2978C43.1321 43.7413 43.4899 44.0951 43.9336 44.1083L43.9336 44.1092Z" fill="white"/>
</svg>
