<svg width="50" height="50" viewBox="0 0 50 50" fill="none" xmlns="http://www.w3.org/2000/svg">
<path d="M49.0305 42.5014L34.1859 27.6568C35.8315 24.867 36.7116 21.6793 36.7116 18.355C36.7116 13.4529 34.802 8.8425 31.3342 5.37579C27.8681 1.90909 23.2586 0 18.3566 0C13.454 0.000529368 8.84412 1.90963 5.37633 5.37688C1.90854 8.84358 0 13.4529 0 18.3555C0 23.2577 1.90909 27.8675 5.37633 31.3342C8.8425 34.8009 13.4534 36.7116 18.355 36.7116C21.6793 36.7116 24.8666 35.8315 27.6574 34.185L42.5019 49.0295C43.1301 49.6593 43.9723 49.9991 44.8883 49.9991C44.9518 49.9991 45.0175 49.9975 45.082 49.9938C46.0284 49.9451 46.9297 49.5376 47.6198 48.848L48.8488 47.618C49.5384 46.9283 49.9459 46.027 49.9952 45.0806C50.0454 44.0914 49.7035 43.1748 49.0298 42.501L49.0305 42.5014ZM6.98585 29.7254C3.94838 26.6879 2.27641 22.6507 2.27641 18.3562C2.27641 14.0607 3.94892 10.0234 6.98585 6.98707C10.0233 3.9496 14.0606 2.27654 18.3555 2.27654C22.6494 2.27654 26.6872 3.94906 29.7242 6.98598C32.7622 10.0234 34.4347 14.0613 34.4347 18.3557C34.4347 22.6501 32.7622 26.6874 29.7242 29.7254C26.6878 32.7618 22.6494 34.4348 18.355 34.4348C14.0606 34.4359 10.0222 32.7623 6.98585 29.7254ZM31.3338 31.336C31.8922 30.7776 32.405 30.1864 32.8819 29.5735L35.5717 32.2633L32.2622 35.5723L29.5724 32.8825C30.1858 32.4062 30.777 31.8928 31.3338 31.336ZM47.2393 46.0098L46.0103 47.2398C45.7181 47.5304 45.3471 47.7019 44.9639 47.7214C44.6188 47.7352 44.3235 47.6325 44.1118 47.4208L33.8716 37.1817L37.1811 33.8727L47.4202 44.1118C47.632 44.3235 47.7389 44.6263 47.7209 44.9645C47.7024 45.3471 47.5309 45.7192 47.2393 46.0098V46.0098Z" fill="white"/>
<path d="M18.5 14V22" stroke="white" stroke-width="2" stroke-linecap="round"/>
<path d="M14.5 18H22.5" stroke="white" stroke-width="2" stroke-linecap="round"/>
</svg>
