<svg width="50" height="50" viewBox="0 0 50 50" fill="none" xmlns="http://www.w3.org/2000/svg">
<path d="M29.3812 4.85195e-06C29.1515 -0.000764802 28.9306 0.0900599 28.7682 0.252467C28.6058 0.415255 28.5149 0.635777 28.5157 0.865541V7.6609C28.5149 7.89104 28.6058 8.11156 28.7682 8.27397C28.9306 8.43637 29.1515 8.5272 29.3812 8.52643H30.5716C31.8142 8.52643 32.7857 9.49934 32.7857 10.742C32.7857 11.9847 31.8143 12.9561 30.5716 12.9561L29.3812 12.9565C29.1515 12.9557 28.9306 13.0465 28.7682 13.2089C28.6058 13.3713 28.5149 13.5919 28.5157 13.822V20.6174C28.5149 20.8471 28.6058 21.0676 28.7682 21.2304C28.9306 21.3928 29.1515 21.4837 29.3812 21.4829H35.3198V21.8146C35.3198 23.9829 37.0902 25.7529 39.2581 25.7529C41.4263 25.7529 43.1978 23.9825 43.1978 21.8146V21.4829H49.1414C49.6175 21.481 50.0019 21.0934 50 20.6174V0.865669C50.0019 0.389611 49.6175 0.00206461 49.1414 0.000133574L29.3812 4.85195e-06ZM30.2418 1.72414H48.2762V19.7586H42.3391C41.863 19.7567 41.4755 20.1411 41.4735 20.6172V21.8144C41.4735 23.0571 40.5006 24.0285 39.258 24.0285C38.0153 24.0285 37.0439 23.0571 37.0439 21.8144L37.0435 20.6172C37.0416 20.1411 36.6544 19.7567 36.1784 19.7586H30.2412V14.6805H30.5714C32.7397 14.6805 34.5111 12.9101 34.5111 10.7423C34.5111 8.57398 32.7393 6.80255 30.5714 6.80255H30.2412L30.2418 1.72414ZM0.860535 8.76196V8.76234C0.63155 8.76273 0.412181 8.85432 0.25093 9.01635C0.0892952 9.17875 -0.000763594 9.39888 4.87788e-06 9.62749V49.1397C0.00192911 49.6139 0.386398 49.9972 0.860535 49.9983H40.3777H40.3773C40.8515 49.9972 41.2359 49.6139 41.2375 49.1397V29.3811C41.2359 28.907 40.8515 28.5233 40.3773 28.5225H33.5751C33.1017 28.5245 32.7184 28.9078 32.7165 29.3811V30.5765C32.7165 31.8192 31.7386 32.7921 30.4955 32.7921C29.2528 32.7921 28.2814 31.8192 28.2814 30.5765V29.3811C28.2795 28.907 27.895 28.5233 27.4209 28.5225H21.4776V23.4429H21.8094C23.9776 23.4429 25.7476 21.6725 25.7476 19.5046C25.7476 17.3364 23.9773 15.5649 21.8094 15.5649L21.4776 15.5645V9.62742C21.4792 9.15136 21.0947 8.7642 20.6186 8.76227L0.860535 8.76196ZM1.72607 10.4861L19.7536 10.4865V16.4251V16.4247C19.7525 16.6545 19.8433 16.8754 20.0061 17.0378C20.1685 17.2002 20.389 17.291 20.6188 17.2902H21.8091C23.0518 17.2902 24.0232 18.2616 24.0232 19.5043C24.0232 20.747 23.0518 21.7184 21.8091 21.7184H20.6188C20.389 21.7176 20.1685 21.8085 20.0061 21.9709C19.8433 22.1337 19.7525 22.3542 19.7536 22.5839V28.5226H14.682V28.1908C14.682 26.0225 12.9102 24.2511 10.7419 24.2511C8.57364 24.2511 6.8037 26.0229 6.8037 28.1908V28.5226H1.72558L1.72607 10.4861ZM10.7424 25.9767C11.9851 25.9767 12.9565 26.9481 12.9565 28.1908V29.3815C12.9553 29.8337 13.3036 30.2101 13.7543 30.2436C13.777 30.2455 13.7993 30.2467 13.8216 30.2467H19.7538V35.3179L19.4286 35.3183C17.2603 35.3183 15.4834 37.0901 15.4834 39.258C15.4834 41.4263 17.2603 43.2031 19.4286 43.2031H19.7534V48.2743L1.72581 48.2747V30.2471H7.66255L7.66294 30.2468C7.69142 30.2468 7.72028 30.2448 7.74876 30.2418C8.19172 30.199 8.52924 29.8265 8.52809 29.3812V28.1909C8.52809 28.0354 8.54271 27.8853 8.57196 27.7398C8.77478 26.7211 9.65491 25.9768 10.7421 25.9768L10.7424 25.9767ZM21.4774 30.2466H26.5555V30.5765C26.5555 32.7447 28.3273 34.5162 30.4952 34.5162C32.6635 34.5162 34.4334 32.7444 34.4334 30.5765V30.2466H39.5115V48.2742L21.4771 48.2746V41.4788H19.4277C18.1851 41.4788 17.2067 40.5009 17.2067 39.2579C17.2067 38.0152 18.1846 37.0423 19.4277 37.0423H19.7525V37.0492H21.4767V36.1837L21.4774 30.2466Z" fill="white"/>
</svg>
