<svg width="226" height="39" viewBox="0 0 226 39" fill="none" xmlns="http://www.w3.org/2000/svg">
<path d="M11.2729 11.2583H16.6172C18.9626 11.2583 20.9678 12.0908 22.6328 13.7559C24.3158 15.4388 25.1572 17.453 25.1572 19.7983C25.1572 22.1437 24.3158 24.1579 22.6328 25.8408C20.9678 27.5059 18.9626 28.3384 16.6172 28.3384H11.2729V11.2583ZM35.8188 19.7983C35.8188 14.4989 33.939 9.97819 30.1792 6.23633C26.4373 2.47656 21.9167 0.59668 16.6172 0.59668H0.611328V39H16.6172C21.9167 39 26.4373 37.1201 30.1792 33.3604C33.939 29.6185 35.8188 25.0978 35.8188 19.7983ZM58.27 11.2583C60.6154 11.2583 62.6296 12.0908 64.3125 13.7559C65.9775 15.4388 66.8101 17.453 66.8101 19.7983C66.8101 22.1437 65.9775 24.1579 64.3125 25.8408C62.6296 27.5059 60.6154 28.3384 58.27 28.3384C55.9246 28.3384 53.9105 27.5059 52.2275 25.8408C50.5625 24.1579 49.73 22.1437 49.73 19.7983C49.73 17.453 50.5625 15.4388 52.2275 13.7559C53.9105 12.0908 55.9246 11.2583 58.27 11.2583ZM58.27 39C63.5695 39 68.0902 37.1201 71.832 33.3604C75.5918 29.6185 77.4717 25.0978 77.4717 19.7983C77.4717 14.4989 75.5918 9.97819 71.832 6.23633C68.0902 2.47656 63.5695 0.59668 58.27 0.59668C52.9705 0.59668 48.4499 2.47656 44.708 6.23633C40.9482 9.97819 39.0684 14.4989 39.0684 19.7983C39.0684 25.0978 40.9482 29.6185 44.708 33.3604C48.4499 37.1201 52.9705 39 58.27 39ZM79.3516 0.59668V11.2583H91.0874V39H101.749V11.2583H113.485V0.59668H79.3516ZM127.396 11.2583H135.399C136.437 11.2583 137.315 11.6253 138.031 12.3594C138.765 13.0934 139.132 13.9707 139.132 14.9912C139.132 16.0296 138.765 16.9069 138.031 17.623C137.315 18.3571 136.437 18.7241 135.399 18.7241H127.396V11.2583ZM127.396 29.3857H135.399C139.374 29.3857 142.766 27.9803 145.577 25.1694C148.388 22.3586 149.793 18.9658 149.793 14.9912C149.793 11.0166 148.388 7.62386 145.577 4.81299C142.766 2.00212 139.374 0.59668 135.399 0.59668H116.734V39H127.396V29.3857ZM160.536 0.59668L145.523 39H156.964L159.059 33.6558H173.937L175.978 39H187.391L172.782 0.59668H160.536ZM166.605 14.3467L169.881 22.9941H163.221L166.605 14.3467ZM201.302 11.2583H206.646C208.992 11.2583 210.997 12.0908 212.662 13.7559C214.345 15.4388 215.187 17.453 215.187 19.7983C215.187 22.1437 214.345 24.1579 212.662 25.8408C210.997 27.5059 208.992 28.3384 206.646 28.3384H201.302V11.2583ZM225.848 19.7983C225.848 14.4989 223.968 9.97819 220.208 6.23633C216.467 2.47656 211.946 0.59668 206.646 0.59668H190.641V39H206.646C211.946 39 216.467 37.1201 220.208 33.3604C223.968 29.6185 225.848 25.0978 225.848 19.7983Z" fill="#7DEEFF"/>
</svg>
