<svg width="80" height="80" viewBox="0 0 80 80" fill="none" xmlns="http://www.w3.org/2000/svg">
<circle cx="40" cy="40" r="40" fill="#00B7E9"/>
<g clip-path="url(#clip0_110_6100)">
<path d="M36.3408 44.5067L35.7783 52.4173C36.583 52.4173 36.9315 52.0717 37.3494 51.6566L41.122 48.0512L48.9392 53.7759C50.3728 54.5749 51.3829 54.1542 51.7697 52.457L56.9008 28.4133L56.9023 28.4119C57.357 26.2926 56.1358 25.4638 54.739 25.9837L24.5782 37.531C22.5198 38.33 22.5509 39.4775 24.2283 39.9974L31.9392 42.3958L49.8501 31.1886C50.693 30.6304 51.4594 30.9392 50.829 31.4974L36.3408 44.5067Z" fill="#010F27"/>
</g>
<path d="M28.396 17.652C28.396 16.98 28.528 16.384 28.792 15.864C29.064 15.344 29.428 14.944 29.884 14.664C30.348 14.384 30.864 14.244 31.432 14.244C31.928 14.244 32.36 14.344 32.728 14.544C33.104 14.744 33.404 14.996 33.628 15.3V14.352H35.32V21H33.628V20.028C33.412 20.34 33.112 20.6 32.728 20.808C32.352 21.008 31.916 21.108 31.42 21.108C30.86 21.108 30.348 20.964 29.884 20.676C29.428 20.388 29.064 19.984 28.792 19.464C28.528 18.936 28.396 18.332 28.396 17.652ZM33.628 17.676C33.628 17.268 33.548 16.92 33.388 16.632C33.228 16.336 33.012 16.112 32.74 15.96C32.468 15.8 32.176 15.72 31.864 15.72C31.552 15.72 31.264 15.796 31 15.948C30.736 16.1 30.52 16.324 30.352 16.62C30.192 16.908 30.112 17.252 30.112 17.652C30.112 18.052 30.192 18.404 30.352 18.708C30.52 19.004 30.736 19.232 31 19.392C31.272 19.552 31.56 19.632 31.864 19.632C32.176 19.632 32.468 19.556 32.74 19.404C33.012 19.244 33.228 19.02 33.388 18.732C33.548 18.436 33.628 18.084 33.628 17.676ZM40.6448 14.256C41.4368 14.256 42.0768 14.508 42.5648 15.012C43.0528 15.508 43.2968 16.204 43.2968 17.1V21H41.6168V17.328C41.6168 16.8 41.4848 16.396 41.2208 16.116C40.9568 15.828 40.5968 15.684 40.1408 15.684C39.6768 15.684 39.3088 15.828 39.0368 16.116C38.7728 16.396 38.6408 16.8 38.6408 17.328V21H36.9608V14.352H38.6408V15.18C38.8648 14.892 39.1488 14.668 39.4928 14.508C39.8448 14.34 40.2288 14.256 40.6448 14.256ZM48.5784 14.256C49.3704 14.256 50.0104 14.508 50.4984 15.012C50.9864 15.508 51.2304 16.204 51.2304 17.1V21H49.5504V17.328C49.5504 16.8 49.4184 16.396 49.1544 16.116C48.8904 15.828 48.5304 15.684 48.0744 15.684C47.6104 15.684 47.2424 15.828 46.9704 16.116C46.7064 16.396 46.5744 16.8 46.5744 17.328V21H44.8944V14.352H46.5744V15.18C46.7984 14.892 47.0824 14.668 47.4264 14.508C47.7784 14.34 48.1624 14.256 48.5784 14.256Z" fill="#010F27"/>
<defs>
<clipPath id="clip0_110_6100">
<rect width="34" height="34" fill="white" transform="translate(23 23)"/>
</clipPath>
</defs>
</svg>
