<svg width="80" height="80" viewBox="0 0 80 80" fill="none" xmlns="http://www.w3.org/2000/svg">
<rect width="80" height="80" rx="40" fill="#7DEEFF"/>
<g clip-path="url(#clip0_110_6054)">
<path d="M57 29.4579C55.7356 30.0125 54.3884 30.3801 52.9837 30.5586C54.4287 29.6959 55.5316 28.3401 56.0501 26.706C54.7029 27.5092 53.2154 28.0766 51.6301 28.3933C50.3509 27.0311 48.5276 26.1875 46.5386 26.1875C42.6796 26.1875 39.5729 29.3198 39.5729 33.1596C39.5729 33.7121 39.6196 34.2434 39.7344 34.7491C33.9395 34.4665 28.8119 31.6891 25.3672 27.4583C24.7659 28.5016 24.4131 29.6959 24.4131 30.9815C24.4131 33.3955 25.6562 35.5354 27.5092 36.7742C26.3894 36.753 25.2907 36.4279 24.36 35.9158C24.36 35.937 24.36 35.9646 24.36 35.9922C24.36 39.3795 26.7761 42.193 29.9445 42.8411C29.3771 42.9962 28.7587 43.0706 28.117 43.0706C27.6707 43.0706 27.2202 43.0451 26.7974 42.9516C27.7005 45.712 30.2633 47.7414 33.3105 47.8072C30.939 49.6624 27.9279 50.7801 24.6681 50.7801C24.0965 50.7801 23.5482 50.7546 23 50.6845C26.0876 52.6756 29.7469 53.8125 33.693 53.8125C46.5195 53.8125 53.532 43.1875 53.532 33.9777C53.532 33.6696 53.5214 33.3721 53.5065 33.0768C54.8899 32.095 56.0522 30.8689 57 29.4579Z" fill="#031532"/>
</g>
<defs>
<clipPath id="clip0_110_6054">
<rect width="34" height="34" fill="white" transform="translate(23 23)"/>
</clipPath>
</defs>
</svg>
