<svg width="80" height="80" viewBox="0 0 80 80" fill="none" xmlns="http://www.w3.org/2000/svg">
<rect width="80" height="80" rx="40" fill="#E6017A"/>
<path fill-rule="evenodd" clip-rule="evenodd" d="M39.9979 23C30.6183 23 23 30.619 23 39.9979C23 49.381 30.619 57 39.9979 57C49.3776 57 57 49.381 57 39.9979C57 30.6183 49.3776 23 39.9979 23V23ZM40.7706 24.8084C41.2764 24.962 41.7802 25.2701 42.2866 25.746C43.0501 26.4634 43.7866 27.5579 44.4111 28.9456C44.6232 29.4169 44.8221 29.9223 45.0067 30.4567H40.7706L40.7706 24.8084ZM39.2253 24.8087V30.4567H34.9905C35.1751 29.9222 35.374 29.4169 35.5861 28.9456C36.2108 27.5579 36.9476 26.4632 37.7112 25.746C38.2171 25.2706 38.7202 24.9626 39.2253 24.8087H39.2253ZM36.2809 24.9943C35.4724 25.8635 34.7728 26.9884 34.1772 28.3114C33.8772 28.9776 33.6039 29.6951 33.3594 30.457H27.8357C29.9295 27.7902 32.8827 25.8314 36.2812 24.9946L36.2809 24.9943ZM43.717 24.9946C47.115 25.8317 50.0685 27.7904 52.1625 30.4567H46.6374C46.3932 29.6951 46.1199 28.9776 45.8202 28.3114C45.2249 26.9884 44.5255 25.8637 43.717 24.9946V24.9946ZM26.7674 32.0023H32.9202C32.3761 34.1705 32.0508 36.62 31.9972 39.2259H24.5645C24.6939 36.5893 25.4819 34.1276 26.7677 32.0023H26.7674ZM34.5202 32.0023H39.2258V39.2259H33.5432C33.6012 36.5869 33.9548 34.1223 34.5205 32.0023H34.5202ZM40.7709 32.0023H45.4773C46.0427 34.1223 46.3955 36.5868 46.4534 39.2259H40.7709V32.0023ZM47.077 32.0023H53.2317C54.5181 34.1279 55.3066 36.5893 55.436 39.2259H47.9992C47.9453 36.62 47.6208 34.1705 47.0769 32.0023H47.077ZM24.5644 40.7707H31.9971C32.0502 43.338 32.3663 45.7536 32.8954 47.8977H26.7081C25.4573 45.7945 24.6916 43.3676 24.5644 40.7707V40.7707ZM33.5432 40.7707H39.2258V47.8977H34.494C33.9437 45.7996 33.6004 43.3697 33.5432 40.7707ZM40.771 40.7707H46.4535C46.3964 43.3698 46.0536 45.7997 45.5038 47.8977H40.7709L40.771 40.7707ZM47.9995 40.7707H55.4363C55.3088 43.3679 54.5426 45.7945 53.2913 47.8977H53.2869H47.102C47.6308 45.7535 47.9464 43.3379 47.9995 40.7707H47.9995ZM27.7588 49.4432H33.329C33.5812 50.2417 33.865 50.9931 34.1776 51.6884C34.7732 53.0117 35.4729 54.1369 36.2817 55.006C32.8412 54.1587 29.8569 52.1614 27.7589 49.4432H27.7588ZM34.9569 49.4432H39.2259V55.1914C38.7208 55.0378 38.2177 54.7298 37.7118 54.2541C36.9486 53.5367 36.2118 52.4419 35.587 51.0539C35.3617 50.5532 35.151 50.0145 34.9569 49.4431L34.9569 49.4432ZM40.7712 49.4432H45.0416C44.8475 50.0148 44.637 50.5535 44.4117 51.0543C43.7873 52.4422 43.0505 53.537 42.2872 54.2544C41.7808 54.7304 41.2771 55.0384 40.7712 55.192L40.7712 49.4432ZM46.669 49.4432H52.2406C50.1419 52.1609 47.1577 54.1582 43.7171 55.0055C44.5259 54.1363 45.2252 53.0112 45.8206 51.6881C46.1332 50.9931 46.4167 50.2417 46.6687 49.4432H46.669Z" fill="#021230"/>
</svg>
