<svg width="26" height="104" viewBox="0 0 26 104" fill="none" xmlns="http://www.w3.org/2000/svg">
<path d="M4.36365 20.6928L4.37839 20.7075L4.39373 20.7216C6.72737 22.8625 9.61927 23.9184 13 23.9184C16.3804 23.9184 19.2387 22.8622 21.4932 20.7076L21.4939 20.707C23.8246 18.4758 25 15.7055 25 12.4592C25 9.21906 23.8284 6.48758 21.4937 4.33846C19.2439 2.10252 16.3857 1 13 1C9.60698 1 6.71001 2.10671 4.37846 4.33866C2.12372 6.49365 1 9.22583 1 12.4592C1 15.6922 2.12282 18.4582 4.36365 20.6928ZM22.8256 31.3367V30.3367H21.8256H3.91861H2.91861V31.3367V102V103H3.91861H21.8256H22.8256V102V31.3367Z" stroke="white" stroke-width="2"/>
</svg>
