<svg width="67" height="104" viewBox="0 0 67 104" fill="none" xmlns="http://www.w3.org/2000/svg">
<path d="M57.0022 52.4338L57.0023 52.4338L57.0096 52.4278C63.0376 47.4439 66 40.275 66 31.0809C66 21.7951 62.9929 14.4151 56.9008 9.07236C50.927 3.66153 43.0472 1 33.3655 1C26.7557 1 20.9339 2.2594 15.9297 4.81297L15.9297 4.81294L15.9228 4.81652C11.0141 7.36949 7.25994 10.9321 4.69356 15.5021C2.1327 20.0624 0.911152 25.2243 1.00502 30.9601L1.02112 31.9438H2.00489H20.0817H21.0817V30.9438C21.0817 27.1205 22.159 24.2469 24.2062 22.1922C26.3458 20.1354 29.3549 19.0494 33.3655 19.0494C37.1741 19.0494 40.0396 20.1689 42.0934 22.3084L42.1001 22.3155L42.1071 22.3224C44.2574 24.4764 45.3754 27.4032 45.3754 31.2181C45.3754 33.8815 44.8633 36.0583 43.8932 37.7949C42.9283 39.5223 41.4781 40.8726 39.4988 41.8428C35.4068 43.8486 29.467 44.8957 21.5882 44.8957H15.4256H14.3958L14.426 45.9251L15.1107 69.2447L15.1392 70.2154H16.1103H32.9547H33.9041L33.9533 69.2672L34.4523 59.6452C43.6778 59.4936 51.2243 57.119 57.0022 52.4338ZM15.1287 99.5515L15.1434 99.5662L15.1588 99.5804C17.6481 101.874 20.7756 103 24.464 103C28.0686 103 31.1113 101.869 33.5102 99.5664L33.5179 99.559L33.5254 99.5515C35.9103 97.1626 37.1044 94.2079 37.1044 90.7517C37.1044 87.2988 35.9119 84.3834 33.5179 82.0816C31.1227 79.6862 28.0776 78.5034 24.464 78.5034C20.7636 78.5034 17.6311 79.6828 15.1439 82.0742C12.7448 84.3772 11.5497 87.2951 11.5497 90.7517C11.5497 94.2079 12.7438 97.1626 15.1287 99.5515Z" stroke="white" stroke-width="2"/>
</svg>
