<svg width="28" height="104" viewBox="0 0 28 104" fill="none" xmlns="http://www.w3.org/2000/svg">
<path d="M25.1855 2.03312L25.2197 1H24.186H3.11628H2.08045L2.1169 2.03519L4.48899 69.3992L4.52297 70.364H5.48837H21.9535H22.9209L22.9529 69.3971L25.1855 2.03312ZM4.64189 99.4995L4.65662 99.5142L4.67195 99.5283C7.20448 101.857 10.3861 103 14.1395 103C17.8074 103 20.9024 101.852 23.3429 99.5144L23.3506 99.507L23.3581 99.4995C25.7847 97.074 27 94.0739 27 90.5635C27 87.0563 25.7862 84.0963 23.3506 81.7594C20.9138 79.3276 17.8164 78.1269 14.1395 78.1269C10.3739 78.1269 7.18706 79.3244 4.65647 81.7526C2.2161 84.0906 1 87.0529 1 90.5635C1 94.0739 2.2153 97.074 4.64189 99.4995Z" stroke="white" stroke-width="2"/>
</svg>
