<svg width="42" height="42" viewBox="0 0 42 42" fill="none" xmlns="http://www.w3.org/2000/svg">
<path fill-rule="evenodd" clip-rule="evenodd" d="M2.27933 13.1582C5.31785 5.8711 12.5553 0.743904 21 0.743904C29.4447 0.743904 36.6822 5.8711 39.7207 13.1582C37.182 9.26883 32.769 6.69514 27.75 6.69514C25.7511 6.69514 23.8483 7.10337 22.1218 7.84035L21 1.08525L19.8782 7.84035C18.1517 7.10337 16.2489 6.69514 14.25 6.69514C9.23097 6.69514 4.81799 9.26883 2.27933 13.1582ZM0.75 20.8293C0.75 18.1126 1.2938 15.5218 2.27933 13.1582C0.837267 15.3676 0 18.0015 0 20.8293C0 9.32561 9.40202 0 21 0C32.598 0 42 9.32561 42 20.8293C42 18.0015 41.1627 15.3676 39.7207 13.1582C40.7062 15.5218 41.25 18.1126 41.25 20.8293C41.25 13.4341 35.2058 7.43904 27.75 7.43904C25.7903 7.43904 23.9281 7.85321 22.2476 8.5981L22.1218 7.84035C21.7389 8.00379 21.3647 8.1834 21 8.37831C20.6353 8.1834 20.2611 8.00379 19.8782 7.84035L19.7524 8.5981C18.0719 7.85321 16.2097 7.43904 14.25 7.43904C6.79416 7.43904 0.75 13.4341 0.75 20.8293ZM0.765602 21.4788C0.75524 21.2636 0.75 21.0471 0.75 20.8293C0.75 21.0469 0.753489 21.2637 0.760414 21.4797L0.375 21.5426L0.764874 21.6063C0.858212 24.0402 1.38819 26.3632 2.27933 28.5004C0.837267 26.2911 0 23.6572 0 20.8293C0 32.3143 9.37139 41.6282 20.9433 41.6586L21 42L21.0567 41.6586C32.6286 41.6282 42 32.3143 42 20.8293C42 23.6572 41.1627 26.2911 39.7207 28.5004C40.6118 26.3632 41.1418 24.0402 41.2351 21.6063L41.625 21.5426L41.2396 21.4797C41.2465 21.2637 41.25 21.0469 41.25 20.8293C41.25 21.0471 41.2448 21.2636 41.2344 21.4788L28.4266 19.3863C27.9949 15.1635 25.6891 11.4901 22.3471 9.19703L22.2476 8.5981C22.0867 8.66944 21.9274 8.74381 21.7699 8.82114C21.5184 8.66587 21.2616 8.51815 21 8.37831C20.7384 8.51815 20.4816 8.66587 20.2301 8.82114C20.0726 8.74381 19.9133 8.66944 19.7524 8.5981L19.6529 9.19703C16.3109 11.4901 14.0051 15.1635 13.5734 19.3863L0.765602 21.4788ZM0.77242 21.6076C0.769944 21.5647 0.767671 21.5218 0.765602 21.4788L0.760414 21.4797C0.761769 21.5219 0.763256 21.5641 0.764874 21.6063L0.77242 21.6076ZM13.8017 23.7362L0.77242 21.6076C1.17876 28.6406 7.05752 34.2196 14.25 34.2196C16.1242 34.2196 17.9091 33.8408 19.5313 33.1562L19.6566 33.9107C17.9894 34.5893 16.1638 34.9635 14.25 34.9635C9.23097 34.9635 4.81799 32.3898 2.27933 28.5004C5.29619 35.7356 12.4523 40.8416 20.8196 40.914L20.9433 41.6586C20.9622 41.6586 20.9811 41.6586 21 41.6586C21.0189 41.6586 21.0378 41.6586 21.0567 41.6586L21.1804 40.914C29.5477 40.8416 36.7038 35.7356 39.7207 28.5004C37.182 32.3898 32.769 34.9635 27.75 34.9635C25.8362 34.9635 24.0106 34.5893 22.3434 33.9107L22.4687 33.1562C24.0909 33.8408 25.8758 34.2196 27.75 34.2196C34.9425 34.2196 40.8212 28.6406 41.2276 21.6076L41.2351 21.6063C41.2367 21.5641 41.2382 21.5219 41.2396 21.4797L41.2344 21.4788C41.2323 21.5218 41.2301 21.5647 41.2276 21.6076L28.1983 23.7362C28.396 22.7981 28.5 21.8257 28.5 20.8293C28.5 20.3422 28.4752 19.8608 28.4266 19.3863L27.6584 19.2608C27.228 15.6019 25.3105 12.3935 22.5213 10.2458L22.3471 9.19703C22.158 9.06727 21.9655 8.94192 21.7699 8.82114C21.5083 8.94952 21.2516 9.08606 21 9.23043C20.7484 9.08606 20.4917 8.94952 20.2301 8.82114C20.0345 8.94192 19.842 9.06727 19.6529 9.19703L19.4787 10.2458C16.6895 12.3935 14.772 15.6019 14.3416 19.2608L13.5734 19.3863C13.5248 19.8608 13.5 20.3422 13.5 20.8293C13.5 21.8257 13.604 22.7981 13.8017 23.7362ZM14.5988 23.8665L13.8017 23.7362C14.5378 27.2289 16.5737 30.248 19.3847 32.273L19.5313 33.1562C19.7678 33.0564 20.0008 32.9501 20.2301 32.8375C20.4816 32.9928 20.7384 33.1405 21 33.2803C20.5653 33.5127 20.117 33.7233 19.6566 33.9107L20.8196 40.914C20.8797 40.9145 20.9398 40.9147 21 40.9147C21.0602 40.9147 21.1203 40.9145 21.1804 40.914L22.3434 33.9107C21.883 33.7233 21.4347 33.5127 21 33.2803C21.2616 33.1405 21.5184 32.9928 21.7699 32.8375C21.9992 32.9501 22.2322 33.0564 22.4687 33.1562L22.6153 32.273C25.4263 30.248 27.4622 27.2289 28.1983 23.7362L27.4012 23.8665C27.6294 22.8907 27.75 21.874 27.75 20.8293C27.75 20.2987 27.7189 19.7753 27.6584 19.2608L23.9168 18.6495L22.5213 10.2458C22.0392 9.87462 21.531 9.5351 21 9.23043C20.469 9.5351 19.9608 9.87462 19.4787 10.2458L18.0832 18.6495L14.3416 19.2608C14.2811 19.7753 14.25 20.2987 14.25 20.8293C14.25 21.874 14.3706 22.8907 14.5988 23.8665ZM19.206 31.1972L19.3847 32.273C19.6593 32.4708 19.9412 32.6591 20.2301 32.8375C20.4917 32.7091 20.7484 32.5726 21 32.4282C21.2516 32.5726 21.5083 32.7091 21.7699 32.8375C22.0588 32.6592 22.3407 32.4708 22.6153 32.273L22.794 31.1972C25.0631 29.3553 26.7165 26.795 27.4012 23.8665L23.9168 24.4357L22.794 31.1972C22.232 31.6534 21.6322 32.0655 21 32.4282C20.3678 32.0655 19.768 31.6534 19.206 31.1972ZM19.206 31.1972L18.0832 24.4357L14.5988 23.8665C15.2835 26.795 16.9369 29.3553 19.206 31.1972Z" fill="white"/>
</svg>
