<svg width="42" height="42" viewBox="0 0 42 42" fill="none" xmlns="http://www.w3.org/2000/svg">
<path d="M21 0L21.3551 9.71132C21.5724 15.6527 26.2761 20.4175 32.1384 20.6347L42 21L32.1384 21.3653C26.2761 21.5825 21.5724 26.3473 21.3551 32.2887L21 42L20.6449 32.2887C20.4276 26.3473 15.7239 21.5825 9.86165 21.3653L0 21L9.86164 20.6347C15.7239 20.4175 20.4276 15.6527 20.6449 9.71133L21 0Z" fill="white"/>
<path d="M31.36 2.81345L26.8766 11.4037C24.1337 16.6591 25.8566 23.1693 30.8263 26.3281L39.1865 31.6419L30.4659 26.9608C25.2819 24.1781 18.8577 25.921 15.7385 30.9562L10.64 39.1865L15.1234 30.5963C17.8663 25.3408 16.1434 18.8307 11.1737 15.6719L2.81347 10.3581L11.5341 15.0392C16.7181 17.8218 23.1423 16.079 26.2615 11.0437L31.36 2.81345Z" fill="white"/>
<path d="M38.944 10.5L30.8235 15.6674C25.8554 18.8287 24.1358 25.3398 26.8813 30.5938L31.5 39.4323L26.257 30.9591C23.1403 25.9222 16.717 24.1761 11.5316 26.956L3.05595 31.5L11.1765 26.3326C16.1446 23.1713 17.8642 16.6602 15.1187 11.4062L10.5 2.5677L15.743 11.0409C18.8597 16.0778 25.283 17.8239 30.4684 15.044L38.944 10.5Z" fill="white"/>
</svg>
