<svg width="42" height="42" viewBox="0 0 42 42" fill="none" xmlns="http://www.w3.org/2000/svg">
<path fill-rule="evenodd" clip-rule="evenodd" d="M8.0993 21C14.6235 22.2638 19.7567 27.4664 21.0037 34.0788C22.2507 27.4664 27.3838 22.2638 33.9081 21C27.3838 19.7362 22.2507 14.5336 21.0037 7.92123C19.7567 14.5336 14.6235 19.7362 8.0993 21ZM5.59364 20.7164C13.8244 20.417 20.4285 13.7237 20.7239 5.38171H21.2835C21.5789 13.7237 28.183 20.417 36.4137 20.7164V21.2836C28.183 21.583 21.5789 28.2763 21.2835 36.6183H20.7239C20.4285 28.2763 13.8244 21.583 5.59364 21.2836V20.7164Z" fill="white"/>
<path fill-rule="evenodd" clip-rule="evenodd" d="M21.1968 5.38171L21 0L20.8032 5.38171H20.7166L20.5151 11.0696C19.7573 15.9424 15.9508 19.7786 11.133 20.5146L5.58633 20.7164V20.7931L0 21L5.58633 21.2069V21.2836L11.1329 21.4854C15.9508 22.2214 19.7573 26.0576 20.5151 30.9304L20.7166 36.6183H20.8032L21 42L21.1968 36.6183H21.2762L21.4754 30.9923C22.2106 26.0893 26.03 22.2233 30.8694 21.485L36.4064 21.2836V21.2072L42 21L36.4064 20.7928V20.7164L30.8693 20.515C26.03 19.7767 22.2106 15.9106 21.4754 11.0077L21.2762 5.38171H21.1968ZM21.1968 5.38171H20.8032L20.6449 9.71133C20.628 10.1717 20.5843 10.6249 20.5151 11.0696L20.1923 20.1851L11.133 20.5146C10.7163 20.5783 10.2921 20.6187 9.86164 20.6347L5.58633 20.7931V21.2069L9.86165 21.3653C10.2921 21.3813 10.7162 21.4217 11.1329 21.4854L20.1923 21.8149L20.5151 30.9304C20.5843 31.3751 20.628 31.8283 20.6449 32.2887L20.8032 36.6183H21.1968L21.3551 32.2887C21.3712 31.8497 21.4117 31.4171 21.4754 30.9923L21.8004 21.8149L30.8694 21.485C31.2853 21.4216 31.7087 21.3812 32.1384 21.3653L36.4064 21.2072V20.7928L32.1384 20.6347C31.7087 20.6188 31.2852 20.5784 30.8693 20.515L21.8004 20.1851L21.4754 11.0077C21.4117 10.5829 21.3712 10.1503 21.3551 9.71132L21.1968 5.38171ZM20.7333 20.7333L20.9964 13.3036L21.2595 20.7333L28.5901 21L21.2595 21.2667L20.9964 28.6964L20.7333 21.2667L13.4026 21L20.7333 20.7333Z" fill="white"/>
</svg>
