<svg width="42" height="42" viewBox="0 0 42 42" fill="none" xmlns="http://www.w3.org/2000/svg">
<path fill-rule="evenodd" clip-rule="evenodd" d="M3.41459 21C12.3055 22.6993 19.3007 29.6945 21 38.5854C22.6993 29.6945 29.6945 22.6993 38.5854 21C29.6945 19.3008 22.6993 12.3055 21 3.41467C19.3007 12.3055 12.3055 19.3008 3.41459 21ZM1.18441e-05 20.6187C11.2164 20.2161 20.2161 11.2165 20.6187 9.31564e-05H21.3813C21.7839 11.2165 30.7836 20.2161 41.9999 20.6187V21.3814C30.7836 21.7839 21.7839 30.7836 21.3813 42H20.6187C20.2161 30.7836 11.2164 21.7839 1.18441e-05 21.3814V20.6187Z" fill="white"/>
<path fill-rule="evenodd" clip-rule="evenodd" d="M3.41459 21C12.3055 22.6993 19.3007 29.6945 21 38.5854C22.6993 29.6945 29.6945 22.6993 38.5854 21C29.6945 19.3008 22.6993 12.3055 21 3.41467C19.3007 12.3055 12.3055 19.3008 3.41459 21ZM1.18441e-05 20.6187C11.2164 20.2161 20.2161 11.2165 20.6187 9.31564e-05H21.3813C21.7839 11.2165 30.7836 20.2161 41.9999 20.6187V21.3814C30.7836 21.7839 21.7839 30.7836 21.3813 42H20.6187C20.2161 30.7836 11.2164 21.7839 1.18441e-05 21.3814V20.6187Z" fill="white"/>
<path fill-rule="evenodd" clip-rule="evenodd" d="M23.4824 35.6871C24.2938 31.9544 24.8021 26.7613 24.8021 21C24.8021 15.2387 24.2938 10.0456 23.4824 6.31287C23.0753 4.44027 22.6005 2.97634 22.0982 1.99913C21.8466 1.50951 21.6071 1.18014 21.397 0.982328C21.1904 0.787929 21.0606 0.763137 21 0.763137C20.9394 0.763137 20.8095 0.787929 20.603 0.982328C20.3928 1.18014 20.1534 1.50951 19.9017 1.99913C19.3995 2.97634 18.9247 4.44027 18.5176 6.31287C17.7061 10.0456 17.1979 15.2387 17.1979 21C17.1979 26.7613 17.7061 31.9544 18.5176 35.6871C18.9247 37.5597 19.3995 39.0236 19.9017 40.0009C20.1534 40.4905 20.3928 40.8198 20.603 41.0177C20.8095 41.2121 20.9394 41.2368 21 41.2368C21.0606 41.2368 21.1904 41.2121 21.397 41.0177C21.6071 40.8198 21.8466 40.4905 22.0982 40.0009C22.6005 39.0236 23.0753 37.5597 23.4824 35.6871ZM21 42C23.5213 42 25.5652 32.598 25.5652 21C25.5652 9.40202 23.5213 0 21 0C18.4787 0 16.4348 9.40202 16.4348 21C16.4348 32.598 18.4787 42 21 42Z" fill="white"/>
<path fill-rule="evenodd" clip-rule="evenodd" d="M23.4824 35.6871C24.2938 31.9544 24.8021 26.7613 24.8021 21C24.8021 15.2387 24.2938 10.0456 23.4824 6.31287C23.0753 4.44027 22.6005 2.97634 22.0982 1.99913C21.8466 1.50951 21.6071 1.18014 21.397 0.982328C21.1904 0.787929 21.0606 0.763137 21 0.763137C20.9394 0.763137 20.8095 0.787929 20.603 0.982328C20.3928 1.18014 20.1534 1.50951 19.9017 1.99913C19.3995 2.97634 18.9247 4.44027 18.5176 6.31287C17.7061 10.0456 17.1979 15.2387 17.1979 21C17.1979 26.7613 17.7061 31.9544 18.5176 35.6871C18.9247 37.5597 19.3995 39.0236 19.9017 40.0009C20.1534 40.4905 20.3928 40.8198 20.603 41.0177C20.8095 41.2121 20.9394 41.2368 21 41.2368C21.0606 41.2368 21.1904 41.2121 21.397 41.0177C21.6071 40.8198 21.8466 40.4905 22.0982 40.0009C22.6005 39.0236 23.0753 37.5597 23.4824 35.6871ZM21 42C23.5213 42 25.5652 32.598 25.5652 21C25.5652 9.40202 23.5213 0 21 0C18.4787 0 16.4348 9.40202 16.4348 21C16.4348 32.598 18.4787 42 21 42Z" fill="white"/>
<path fill-rule="evenodd" clip-rule="evenodd" d="M6.31287 23.4824C10.0456 24.2938 15.2387 24.8021 21 24.8021C26.7613 24.8021 31.9544 24.2938 35.6871 23.4824C37.5597 23.0753 39.0237 22.6005 40.0009 22.0983C40.4905 21.8466 40.8199 21.6071 41.0177 21.397C41.2121 21.1905 41.2369 21.0606 41.2369 21C41.2369 20.9394 41.2121 20.8095 41.0177 20.603C40.8199 20.3929 40.4905 20.1534 40.0009 19.9018C39.0237 19.3995 37.5597 18.9247 35.6871 18.5176C31.9544 17.7062 26.7613 17.1979 21 17.1979C15.2387 17.1979 10.0456 17.7062 6.31287 18.5176C4.44027 18.9247 2.97634 19.3995 1.99913 19.9017C1.50951 20.1534 1.18014 20.3929 0.982329 20.603C0.787929 20.8095 0.763137 20.9394 0.763137 21C0.763137 21.0606 0.787929 21.1905 0.982329 21.397C1.18014 21.6071 1.50951 21.8466 1.99913 22.0983C2.97634 22.6005 4.44027 23.0753 6.31287 23.4824ZM0 21C-1.1021e-07 23.5213 9.40202 25.5652 21 25.5652C32.598 25.5652 42 23.5213 42 21C42 18.4787 32.598 16.4348 21 16.4348C9.40202 16.4348 1.1021e-07 18.4787 0 21Z" fill="white"/>
<path fill-rule="evenodd" clip-rule="evenodd" d="M6.31287 23.4824C10.0456 24.2938 15.2387 24.8021 21 24.8021C26.7613 24.8021 31.9544 24.2938 35.6871 23.4824C37.5597 23.0753 39.0237 22.6005 40.0009 22.0983C40.4905 21.8466 40.8199 21.6071 41.0177 21.397C41.2121 21.1905 41.2369 21.0606 41.2369 21C41.2369 20.9394 41.2121 20.8095 41.0177 20.603C40.8199 20.3929 40.4905 20.1534 40.0009 19.9018C39.0237 19.3995 37.5597 18.9247 35.6871 18.5176C31.9544 17.7062 26.7613 17.1979 21 17.1979C15.2387 17.1979 10.0456 17.7062 6.31287 18.5176C4.44027 18.9247 2.97634 19.3995 1.99913 19.9017C1.50951 20.1534 1.18014 20.3929 0.982329 20.603C0.787929 20.8095 0.763137 20.9394 0.763137 21C0.763137 21.0606 0.787929 21.1905 0.982329 21.397C1.18014 21.6071 1.50951 21.8466 1.99913 22.0983C2.97634 22.6005 4.44027 23.0753 6.31287 23.4824ZM0 21C-1.1021e-07 23.5213 9.40202 25.5652 21 25.5652C32.598 25.5652 42 23.5213 42 21C42 18.4787 32.598 16.4348 21 16.4348C9.40202 16.4348 1.1021e-07 18.4787 0 21Z" fill="white"/>
</svg>
