<svg width="1440" height="374" viewBox="0 0 1440 374" fill="none" xmlns="http://www.w3.org/2000/svg">
<path fill-rule="evenodd" clip-rule="evenodd" d="M189.089 47.7678C169.462 78.7138 149.816 125.166 130.159 187.151C110.493 249.166 90.8162 295.714 71.1205 326.768C51.4444 357.791 31.6529 373.5 11.7142 373.5C-8.22443 373.5 -28.016 357.791 -47.6921 326.768C-67.3878 295.714 -87.0646 249.166 -106.731 187.151C-126.387 125.166 -146.033 78.7138 -165.66 47.7678C-185.307 16.7911 -204.838 1.50001 -224.222 1.50001C-243.606 1.50001 -263.138 16.7911 -282.784 47.7678C-302.411 78.7138 -322.057 125.166 -341.714 187.151C-361.38 249.166 -381.057 295.714 -400.752 326.768C-420.429 357.791 -440.22 373.5 -460.159 373.5C-480.097 373.5 -499.889 357.791 -519.565 326.768C-539.261 295.714 -558.938 249.166 -578.604 187.151C-598.26 125.166 -617.906 78.7138 -637.533 47.7678C-657.18 16.7911 -676.711 1.50001 -696.095 1.50001C-715.479 1.50001 -735.011 16.7911 -754.657 47.7678C-774.284 78.7138 -793.93 125.166 -813.587 187.151C-833.253 249.166 -852.93 295.714 -872.625 326.768C-892.302 357.791 -912.093 373.5 -932.032 373.5C-951.97 373.5 -971.762 357.791 -991.438 326.768C-1011.13 295.714 -1030.81 249.166 -1050.48 187.151L-1049.52 186.849C-1029.87 248.834 -1010.22 295.286 -990.594 326.232C-970.947 357.209 -951.416 372.5 -932.032 372.5C-912.648 372.5 -893.116 357.209 -873.47 326.232C-853.843 295.286 -834.197 248.834 -814.54 186.849C-794.874 124.834 -775.197 78.2862 -755.502 47.2322C-735.825 16.2088 -716.034 0.500005 -696.095 0.500005C-676.157 0.500005 -656.365 16.2088 -636.689 47.2322C-616.993 78.2862 -597.316 124.834 -577.65 186.849C-557.994 248.834 -538.348 295.286 -518.721 326.232C-499.074 357.209 -479.543 372.5 -460.159 372.5C-440.775 372.5 -421.243 357.209 -401.597 326.232C-381.97 295.286 -362.324 248.834 -342.667 186.849C-323.001 124.834 -303.324 78.2862 -283.629 47.2322C-263.952 16.2088 -244.161 0.500005 -224.222 0.500005C-204.284 0.500005 -184.492 16.2088 -164.816 47.2322C-145.12 78.2862 -125.443 124.834 -105.777 186.849C-86.1207 248.834 -66.4748 295.286 -46.8477 326.232C-27.2011 357.209 -7.66987 372.5 11.7142 372.5C31.0983 372.5 50.6296 357.209 70.2761 326.232C89.9031 295.286 109.549 248.834 129.206 186.849C148.872 124.834 168.549 78.2862 188.244 47.2322C207.92 16.2089 227.712 0.5 247.651 0.5C267.589 0.5 287.381 16.2089 307.057 47.2322C326.753 78.2862 346.429 124.834 366.096 186.849C385.752 248.834 405.398 295.286 425.025 326.232C444.672 357.209 464.203 372.5 483.587 372.5C502.971 372.5 522.502 357.209 542.149 326.232C561.776 295.286 581.422 248.834 601.079 186.849C620.745 124.834 640.422 78.2862 660.117 47.2322C679.793 16.2089 699.585 0.5 719.524 0.5C739.462 0.5 759.254 16.2089 778.93 47.2322C798.626 78.2862 818.302 124.834 837.968 186.849C857.625 248.834 877.271 295.286 896.898 326.232C916.545 357.209 936.076 372.5 955.46 372.5C974.844 372.5 994.375 357.209 1014.02 326.232C1033.65 295.286 1053.3 248.834 1072.95 186.849C1092.62 124.834 1112.29 78.2862 1131.99 47.2322C1151.67 16.2089 1171.46 0.5 1191.4 0.5C1211.34 0.5 1231.13 16.2089 1250.8 47.2322C1270.5 78.2862 1290.18 124.834 1309.84 186.849C1329.5 248.834 1349.14 295.286 1368.77 326.232C1388.42 357.209 1407.95 372.5 1427.33 372.5C1446.72 372.5 1466.25 357.209 1485.89 326.232C1505.52 295.286 1525.17 248.834 1544.82 186.849C1564.49 124.834 1584.17 78.2862 1603.86 47.2322C1623.54 16.2088 1643.33 0.500005 1663.27 0.500005C1683.21 0.500005 1703 16.2088 1722.68 47.2322C1742.37 78.2862 1762.05 124.834 1781.71 186.849C1801.37 248.834 1821.02 295.286 1840.64 326.232C1860.29 357.209 1879.82 372.5 1899.21 372.5C1918.59 372.5 1938.12 357.209 1957.77 326.232C1977.4 295.286 1997.04 248.834 2016.7 186.849C2036.36 124.834 2056.04 78.2862 2075.74 47.2322C2095.41 16.2088 2115.2 0.500005 2135.14 0.500005C2155.08 0.500005 2174.87 16.2088 2194.55 47.2322C2214.24 78.2862 2233.92 124.834 2253.59 186.849C2273.24 248.834 2292.89 295.286 2312.52 326.232C2332.16 357.209 2351.69 372.5 2371.08 372.5C2390.46 372.5 2409.99 357.209 2429.64 326.232C2449.27 295.286 2468.91 248.834 2488.57 186.849L2489.52 187.151C2469.86 249.166 2450.18 295.714 2430.49 326.768C2410.81 357.791 2391.02 373.5 2371.08 373.5C2351.14 373.5 2331.35 357.791 2311.67 326.768C2291.98 295.714 2272.3 249.166 2252.63 187.151C2232.98 125.166 2213.33 78.7138 2193.7 47.7678C2174.06 16.7911 2154.53 1.50001 2135.14 1.50001C2115.76 1.50001 2096.23 16.7911 2076.58 47.7678C2056.95 78.7138 2037.31 125.166 2017.65 187.151C1997.99 249.166 1978.31 295.714 1958.61 326.768C1938.94 357.791 1919.14 373.5 1899.21 373.5C1879.27 373.5 1859.48 357.791 1839.8 326.768C1820.1 295.714 1800.43 249.166 1780.76 187.151C1761.1 125.166 1741.46 78.7138 1721.83 47.7678C1702.18 16.7911 1682.65 1.50001 1663.27 1.50001C1643.89 1.50001 1624.35 16.7911 1604.71 47.7678C1585.08 78.7138 1565.43 125.166 1545.78 187.151C1526.11 249.166 1506.44 295.714 1486.74 326.768C1467.06 357.791 1447.27 373.5 1427.33 373.5C1407.39 373.5 1387.6 357.791 1367.93 326.768C1348.23 295.714 1328.55 249.166 1308.89 187.151C1289.23 125.166 1269.59 78.7138 1249.96 47.7678C1230.31 16.7912 1210.78 1.5 1191.4 1.5C1172.01 1.5 1152.48 16.7912 1132.83 47.7678C1113.21 78.7138 1093.56 125.166 1073.9 187.151C1054.24 249.166 1034.56 295.714 1014.87 326.768C995.19 357.791 975.399 373.5 955.46 373.5C935.521 373.5 915.73 357.791 896.054 326.768C876.358 295.714 856.681 249.166 837.015 187.151C817.359 125.166 797.713 78.7138 778.086 47.7678C758.439 16.7912 738.908 1.5 719.524 1.5C700.14 1.5 680.608 16.7912 660.962 47.7678C641.335 78.7138 621.689 125.166 602.032 187.151C582.366 249.166 562.689 295.714 542.993 326.768C523.317 357.791 503.526 373.5 483.587 373.5C463.648 373.5 443.857 357.791 424.181 326.768C404.485 295.714 384.808 249.166 365.142 187.151C345.486 125.166 325.84 78.7138 306.213 47.7678C286.566 16.7912 267.035 1.5 247.651 1.5C228.267 1.5 208.735 16.7912 189.089 47.7678Z" fill="#7DEEFF"/>
</svg>
